# xmcd
#
# Track frame offsets: 
#        150
#        14400
#        30819
#        47044
#        63031
#        70942
#        85856
#        113454
#        129736
#        147099
#        171531
#
# Disc length: 2448 seconds
#
# Revision: 2
# Processed by: cddbd v1.5.2PL0 Copyright (c) Steve Scherf et al.
# Submitted via: ExactAudioCopyFreeDBPlugin 1.0
#
DISCID=8a098e0b
DTITLE=Tommy Cougar - Juke Joint Fever
DYEAR=1998
DGENRE=Blues
TTITLE0=Shake It
TTITLE1=Cadillac Jane
TTITLE2=I Don't Know
TTITLE3=Trying To Get Through
TTITLE4=Dog Bone
TTITLE5=Hot Rod Machine
TTITLE6=Devil Blues
TTITLE7=Have Some Fun
TTITLE8=Fool For Chocolate
TTITLE9=Get My Heart Back Together
TTITLE10=Got To Go
EXTD=1998, Blues Bonnet Records YEAR: 1998
EXTT0=
EXTT1=
EXTT2=
EXTT3=
EXTT4=
EXTT5=
EXTT6=
EXTT7=
EXTT8=
EXTT9=
EXTT10=
PLAYORDER=
